<svg id="0e0ce67a-aff4-48ef-a9d1-05ccecee11b3" data-name="Text" xmlns="http://www.w3.org/2000/svg" viewBox="0 0 655.53 177.44"><defs><style>.\34 bc3d283-e944-4980-a5fe-db3c94a4f8d2{fill:#002d40;stroke:#002d40;stroke-linejoin:round;stroke-width:2px;}</style></defs><title>header-center</title><g id="caadfc3e-0a07-4ee9-a528-6ee3461e7fb4" data-name="FUkOe4"><path class="4bc3d283-e944-4980-a5fe-db3c94a4f8d2" d="M650.34,171.47c0,5.4-.61,10.64,0,15.48,1,7.18,6.09,9.12,13.5,5.09,4.49-2.44,9.25-5.44,12.61-9.21,8.08-9.06,16.23-18.31,22.72-28.28,4.22-6.47,5.53-14.34,8.25-21.57,0.61-1.62,1.34-3.75,2.6-4.58,1.57-1,4.43-1.84,5.5-1.16a5.16,5.16,0,0,1,1.76,5.08c-1.36,4.19-3.67,8.27-5.55,12.41-2.47,5.43-4.89,10.87-7.33,16.31l1.11,0.51c1.3-1.18,2.56-2.41,3.92-3.52,3.67-3,7.19-6.35,11.12-8.88,12.18-7.84,22.28-2.64,20.83,10.49-2.22,20.07-22.95,44.51-43.91,51.47-3.37,1.12-4.74,2.51-5.29,5.82-3.13,18.81-2.29,17.63-5.44,36.44-0.51,3.07-1.11,5.83-4.86,6.19s-4-2.78-3.57-5.5c1.44-9.32,2.87-18.67,4.89-28,5.65-26.17,7.35-32.34,13.18-58.51,0.39-1.75.75-3.51,1.3-6.12-5,6.4-9.08,12.37-14,17.55-6.16,6.47-13,12.42-19.71,18.33a25.53,25.53,0,0,1-7.45,4c-7.59,3-13.36,1.31-15-5.58-1.38-5.88-.93-12.51-1.44-18.76-0.17-2.05-1.07-3.9-1.2-6a10.21,10.21,0,0,1,.85-4.84c1-2.18,3.05-4.14,3.87-6.33,3.24-8.69,6.91-17.3,14.05-24.22a25,25,0,0,1,10.56-5.95c5.84-1.45,10.55,4.16,9.29,10.27C674.53,154.53,665.95,165.17,650.34,171.47ZM694.76,207c4.62-3.52,8.62-6.29,12.3-9.43,10.83-9.26,17.57-20.34,19.78-33.21,0.95-5.5-1.46-7.36-7-5.78-6.92,2-17,11.32-18.55,17.87C699,186.22,697.1,196,694.76,207ZM653,163.11c7.31-2.36,16.1-12.49,16.54-18.83,0.07-1-.43-2.48-1.21-2.8a4.18,4.18,0,0,0-3.32,1A43.75,43.75,0,0,0,653,163.11Z" transform="translate(-583.78 -83.16)"/><path class="4bc3d283-e944-4980-a5fe-db3c94a4f8d2" d="M810.41,175.22c-18.13,13-37.16,23.85-58.89,30.69-1.47,9.36-3,29.28-4.58,39.21a18.7,18.7,0,0,1-3.21,6.94c-0.76,1.11-5.35-.06-5.15-1.34,2.74-17.87,1-15.74,4.32-33.64,3.19-17.29,6.63-34.63,11.06-51.9,3.12-12.15,8-24.22,12.34-36.29,0.54-1.5,2.94-3.67,4.3-3.82s3.21,1.37,4,2.72c2.08,3.42.79,7.18-1.55,11.23-4.09,7.07-7.72,14.31-11.55,21.48l1.1,0.46c2.76-2.7,5.23-5.88,8.33-8,4.24-2.86,8.89-5.86,13.48-7.08,10.06-2.67,15.68,3.14,13.87,13.34-1.63,9.25-5.85,17.86-12.1,25.89-1,1.26-2,2.5-3.77,4.73a95.6,95.6,0,0,0,26.89-17.78c0.81-.73,1-2.52,1-3.71-0.08-9.38,1-18.76,5.9-28.12a45,45,0,0,1,5-7.48c4-4.85,6.76-5.81,11.69-4.5,4.55,1.2,7.28,4.53,5.74,9.39a75.91,75.91,0,0,1-7.44,15.71,47.12,47.12,0,0,1-8.49,10c-3.31,3-4.18,5.76-3.66,9.46,1.35,9.63,4.19,18.41,9.31,26.12,0.76,1.14.39,3.11,0.54,4.69-1.94-.08-4.84.64-5.66-0.37a52.42,52.42,0,0,1-7.16-11.59C813.81,186.51,812.31,180.87,810.41,175.22Zm-56.28,21.45c4.12-1.36,8.32-1.84,11.62-4,12.19-7.95,17.93-19.32,20.23-32,0.84-4.62-1.6-6.5-6.21-5.72-7.2,1.23-18.55,10.66-20.44,17.68C757.25,180.43,755.94,188.22,754.14,196.68Zm64-35.67L820,161.5c5-5.61,9.7-11.42,11.48-18.44,0.39-1.54-.94-3.15-1.48-4.73-1.5,1.07-3.81,1.95-4.36,3.23C822.84,148,820.55,154.52,818.09,161Z" transform="translate(-583.78 -83.16)"/><path class="4bc3d283-e944-4980-a5fe-db3c94a4f8d2" d="M1052.12,176.42c-5.92,8-11.09,15.62-17,22.74-7.9,9.57-15.2,9.48-17.42-.94a106.94,106.94,0,0,1-2-30.23c1-13.58,4.12-27.44,6.49-41.19a14.08,14.08,0,0,1,2.7-6.63c1.51-1.73,4.18-2.57,6.35-3.8,0.46,1.73,1.47,3.41,1.3,5.21-1.89,19.42-4.08,38.88-5.89,58.29-0.32,3.4.52,6.74,1.28,9.92s3.23,4.15,6.07.88c9.1-10.48,19.65-20.39,20.14-34.51,0.12-3.35,1.51-7,2.9-10.44a7.83,7.83,0,0,1,7.75-5.15c3.69,0.19,4.66,2.8,4.18,6.19a19.72,19.72,0,0,1-1.4,5c-5.63,13.05-4.08,25.4-4.34,37.93,0,0.39.38,0.7,1.09,1.93,2-2.66,4.25-4.77,5.33-7.17,5-11.14,10.3-22.26,14.28-33.57,6.94-19.68,12.92-39.49,19.46-59.23,1.08-3.26,1.71-7.68,6.95-7.49,3.23,0.12,4.25,4.38,2.05,9.37-2.78,6.33-6.4,12.49-8.83,18.86-7.62,20-14.59,40.18-22.38,60.18-2.67,6.84-6.89,13.42-10.7,20a30.51,30.51,0,0,1-5.48,6.58c-4.64,4.39-9.15,4.25-10.39-.92-1.43-5.92-1.58-12.36-2.27-18.58C1052.23,178.69,1052.2,177.7,1052.12,176.42Z" transform="translate(-583.78 -83.16)"/><path class="4bc3d283-e944-4980-a5fe-db3c94a4f8d2" d="M599.73,157.06c-1.42,11.29-2.82,22.53-4.27,33.78-0.37,2.89-.41,5.9-1.58,8.64-0.75,1.74-3.49,4.22-5,4.29s-3.63-2-3.94-3.7c-0.47-2.6.14-5.68,0.71-8.57q7.36-37.19,14.87-74.39c0.12-.6.15-1.21,0.27-2.16-1.67.49-3.18,1-4.69,1.36-3.42.73-5.83-.26-6.23-3.56s1-5.52,4.73-6.9c4.61-1.7,9.38-2.86,12.5-8.12,1.7-2.86,3.76-2.48,5.94.2,4.5-1.28,9-2.86,13.46-3.76,22.19-4.48,27.15,10.88,21.72,26.09a54.16,54.16,0,0,1-44.4,35.92C602.75,156.33,601.67,156.64,599.73,157.06Zm1.43-6.91c16.94,1,37.37-15.61,40-31.75,1.32-8.17-1.91-12.92-9.73-13.57-7-.58-13.91,2.4-20.67,5.75a4.59,4.59,0,0,0-1.7,2.71C606.37,125.5,603.8,137.72,601.16,150.15Z" transform="translate(-583.78 -83.16)"/><path class="4bc3d283-e944-4980-a5fe-db3c94a4f8d2" d="M951.84,189.28c6.76-3.22,12.59-6,18.45-8.77,2.31-1.08,5-3.11,6.52-.25s-0.05,5.93-3.18,7.56c-8.25,4.3-16.53,8.94-25.06,12a75.39,75.39,0,0,1-20.92,3.77c-9.57.56-11.8-4.14-6.35-13a192.34,192.34,0,0,1,13-17.86c1.86-2.37,2.39-4,1.61-6.55-3.57-11.58-3.19-23.63,4.7-36.18a32.9,32.9,0,0,1,13.57-12.59c7.93-3.81,13.3-1.35,14,6.35a24.58,24.58,0,0,1-4.47,16.58c-5.9,8.52-12.14,16.88-18.45,25.16-1.74,2.28-2.45,4.1-1.45,6.26C946.47,177.39,949,183.1,951.84,189.28Zm-10.16-27.14,1.68,0.68c5.63-8.53,11.32-17,16.81-25.61a12.61,12.61,0,0,0,1.45-5c0.67-4.63-2.38-6.76-6.71-4.13a27.47,27.47,0,0,0-7.95,7.48C940.88,144.39,940.4,153.34,941.68,162.14Zm8,28.34L938.3,173.8c-3.36,5.35-6.69,10.11-9.38,15.09-2.5,4.64-.62,7.35,4.33,6.29C938.49,194.05,943.7,192.23,949.7,190.49Z" transform="translate(-583.78 -83.16)"/><path class="4bc3d283-e944-4980-a5fe-db3c94a4f8d2" d="M1185.68,134.09L1214.55,121c1.4,2.49.48,5.75-3.92,8.45-5,3.06-10.23,6.07-15.55,7.85-9,3-14.44,7.38-15.63,17.21-1,8.3-4.56,16.8-6.26,25.2-0.81,4,0,8,.17,12a34.72,34.72,0,0,0,.73,4.28c0.53,3.09,1.06,6.33-3.19,8.42-3.17,1.55-6.53-.59-6.33-5.35a134.27,134.27,0,0,1,2.91-22.25c1.83-8.65,4.59-17.31,6.22-26.2l-10.82,13.46-0.63-.38,12.85-17.35-26.46,9.23c-2,.7-4,1.41-6,2.13-2.76,1-5.47,1.91-6.09-1.64s1.53-8.1,4.71-9c6.05-1.79,12.15-3.14,18.22-4.85,5-1.4,9.92-3.18,14.89-4.55,3-.82,4.14-2.41,4.77-5.27,2.35-10.72,4.92-21.43,7.56-32.15,0.59-2.4,1.25-5.17,2.85-7.05a11,11,0,0,1,6.41-3.3c1-.1,2.63,3,2.18,4.55-2.79,9.57-6,19.1-9.25,28.63-1.12,3.32-2.57,6.59-3.87,9.88Z" transform="translate(-583.78 -83.16)"/><path class="4bc3d283-e944-4980-a5fe-db3c94a4f8d2" d="M840.77,159.88c6.35-6.13,11.22-4.81,14.55,3.16,3.4-4.5,6.54-9.3,10.35-13.56a40.71,40.71,0,0,1,18.25-12.2c7.54-2.33,12.42.18,12.93,7a9.83,9.83,0,0,1-1.88,5.9c-0.69.93-3.69,1.63-4.59,1.06-1.34-.85-1.75-2.91-2.94-5.21-4.19-.07-9.13,2.55-12.39,6.81-5.25,6.87-10.41,14.1-14,21.64-3.88,8.19-5.85,16.91-8.76,25.38a58.42,58.42,0,0,1-2.67,5.73c-2-1.23-4.53-2.08-6-3.83-0.8-1-.06-3.44.35-5.22,1.52-6.58,3.3-13.15,4.8-19.73,1.3-5.73.36-10.43-4.41-13.32C843,162.65,842.09,161.23,840.77,159.88Z" transform="translate(-583.78 -83.16)"/><path class="4bc3d283-e944-4980-a5fe-db3c94a4f8d2" d="M1230.43,134.31l-5.6,5.35c-2.45,2.35-5.1,4.56-7.3,7.1-6.23,7.19-5.67,11.56,1.74,14.37,3.73,1.41,7.68,2.43,11.41,3.85,9.7,3.72,10.24,10.13,1.22,18.3a104.31,104.31,0,0,1-32.55,19.79c-1.87.73-5.17,0.52-5.94-.63-1.56-2.36.66-5,3.32-6.55,5.65-3.32,11.54-6.15,17.07-9.67a93.57,93.57,0,0,0,12.8-9.77c2.75-2.51,2.47-4.88-.89-6.17-5.57-2.13-11.25-4.2-16.27-7.14-5.87-3.43-6.34-8.68-2.73-16.91,3.14-7.16,8.87-12,15.45-12.62C1224.51,133.38,1226.77,134,1230.43,134.31Z" transform="translate(-583.78 -83.16)"/><path class="4bc3d283-e944-4980-a5fe-db3c94a4f8d2" d="M1145.47,183.37c-9,8.66-17.86,17.47-29.33,22.64-8.3,3.74-13.73,1.76-14.94-6.13-2.23-14.47,1-29.31,8.26-44.1a11.49,11.49,0,0,1,4.22-4.82c2.13-1.12,5.31-2.08,6.87-1.32s2.38,3.75,1.94,5.75a28.41,28.41,0,0,1-4.28,9.18c-7.49,11.12-7.36,22.15-6.69,33.05,0.29,4.69,3.53,6.13,8.24,3.49,6.21-3.48,12-7.9,17.9-12.14a86.93,86.93,0,0,0,7.16-6.46Z" transform="translate(-583.78 -83.16)"/><path class="4bc3d283-e944-4980-a5fe-db3c94a4f8d2" d="M1116.54,120.94c2.17-3.61,3-6.51,6.88-6.52,3.35,0,6.59,3.86,5.81,6.94-0.64,2.57-6.08,6.61-8.39,5.49C1118.78,125.84,1117.93,123,1116.54,120.94Z" transform="translate(-583.78 -83.16)"/><path class="4bc3d283-e944-4980-a5fe-db3c94a4f8d2" d="M1140.93,187.84s13.75-11.29,22.28-24.12l-0.53-.56c-5.49,7.12-9.9,13.36-30.27,29.73Z" transform="translate(-583.78 -83.16)"/></g></svg>